<svg xmlns="http://www.w3.org/2000/svg" version="1.1" xmlns:xlink="http://www.w3.org/1999/xlink" xmlns:svgjs="http://svgjs.dev/svgjs" width="1000" height="1000" viewBox="0 0 1000 1000"><rect width="1000" height="1000" fill="#000000"></rect><g transform="matrix(0.7,0,0,0.7,149.57575757575756,282.1265587044535)"><svg viewBox="0 0 396 247" data-background-color="#003366" preserveAspectRatio="xMidYMid meet" height="623" width="1000" xmlns="http://www.w3.org/2000/svg" xmlns:xlink="http://www.w3.org/1999/xlink"><g id="tight-bounds" transform="matrix(1,0,0,1,0.2400000000000091,-0.09999999999999432)"><svg viewBox="0 0 395.52 247.2" height="247.2" width="395.52"><g><svg></svg></g><g><svg viewBox="0 0 395.52 247.2" height="247.2" width="395.52"><g transform="matrix(1,0,0,1,75.54432,95.1999724899905)"><svg viewBox="0 0 244.43135999999998 56.800055020019" height="56.800055020019" width="244.43135999999998"><g><svg viewBox="0 0 310.95856730116907 72.25940129635038" height="56.800055020019" width="244.43135999999998"><g transform="matrix(1,0,0,1,0,9.986646633576648)"><svg viewBox="0 0 244.43135999999998 52.28610802919708" height="52.28610802919708" width="244.43135999999998"><g id="textblocktransform"><svg viewBox="0 0 244.43135999999998 52.28610802919708" height="52.28610802919708" width="244.43135999999998" id="textblock"><g><svg viewBox="0 0 244.43135999999998 52.28610802919708" height="52.28610802919708" width="244.43135999999998"><g transform="matrix(1,0,0,1,0,0)"><svg width="244.43135999999998" viewBox="-1.71 -39.06 240.8 51.510000000000005" height="52.28610802919708" data-palette-color="#ffffff"><g class="wordmark-text-0" data-fill-palette-color="primary" id="text-0"><path d="M2.91-0.17L2.91-0.17Q2 0.49 0.84 0.49-0.32 0.49-1.01-0.11-1.71-0.71-1.71-1.49-1.71-2.27-1.46-2.64L-1.46-2.64Q-0.76-2.22 0.28-2.22 1.32-2.22 1.84-2.5 2.37-2.78 2.86-3.27L2.86-3.27 6.32-13.55 6.81-15.23Q7.03-15.99 7.03-16.63L7.03-16.63Q7.03-18.85 4.93-19.46L4.93-19.46Q6.86-20.19 7.64-21.04L7.64-21.04Q8.86-22.39 9.57-24.58L9.57-24.58 12.26-33.59Q11.47-34.64 10.4-34.64 9.33-34.64 8.4-34.18L8.4-34.18Q8.15-34.62 8.15-35.17 8.15-35.72 8.39-36.21 8.62-36.69 9.03-37.06L9.03-37.06Q9.96-37.84 11.67-37.84 13.38-37.84 14.58-36.82L14.58-36.82Q15.8-37.84 17.61-37.84 19.43-37.84 20.51-36.87L20.51-36.87Q22.07-37.84 23.68-37.84 25.29-37.84 26.18-37.23 27.08-36.62 27.08-35.57L27.08-35.57Q27.08-35.08 26.78-34.72L26.78-34.72Q26.22-35.13 25.46-35.13L25.46-35.13Q23.83-35.13 23.34-32.91L23.34-32.91 26.46-22.92Q27.05-21.04 29.39-20L29.39-20Q30.05-19.7 30.74-19.46L30.74-19.46Q28.3-18.65 28.3-17.04L28.3-17.04Q28.3-16.43 28.49-15.97L28.49-15.97 33.15-3.47Q34.23-2.34 35.33-2.34 36.43-2.34 37.04-2.76L37.04-2.76Q37.3-2.56 37.3-2.03 37.3-1.49 37.13-1.04 36.96-0.59 36.6-0.24L36.6-0.24Q35.82 0.49 34.3 0.49 32.79 0.49 31.67-0.34L31.67-0.34Q30.4 0.49 28.8 0.49 27.2 0.49 26.05-0.32L26.05-0.32Q24.95 0.49 23.46 0.49 21.97 0.49 21-0.13 20.02-0.76 19.97-1.9L19.97-1.9Q19.97-2.59 20.24-2.76L20.24-2.76Q20.9-2.34 21.58-2.34L21.58-2.34Q23.02-2.34 23.61-2.93L23.61-2.93 21.75-9.16 8.54-9.16 6.93-3.76Q7.93-2.22 9.36-2.22 10.79-2.22 11.5-2.64L11.5-2.64Q11.77-2.2 11.77-1.43 11.77-0.66 11.01-0.09 10.25 0.49 9.06 0.49 7.86 0.49 6.86-0.12L6.86-0.12Q5.98 0.49 4.85 0.49 3.71 0.49 2.91-0.17ZM9.52-12.45L20.75-12.45 15.09-31.27 9.52-12.45ZM24.15-10.03L25.42-6.47Q25.85-6.47 25.85-7.45L25.85-7.45Q25.85-9.16 25.34-10.77L25.34-10.77 24.41-13.62Q23.44-16.85 23.44-17.68L23.44-17.68Q23.41-19.04 24.63-19.48L24.63-19.48Q22.95-19.82 22.58-20.53L22.58-20.53Q22.41-20.83 22.3-21 22.19-21.17 22.08-21.4 21.97-21.63 21.83-22 21.68-22.36 21.44-23.05L21.44-23.05 19.92-27.61Q19.38-29.32 18.33-30.2L18.33-30.2Q18.02-30.47 17.75-30.52L17.75-30.52Q19.38-24.61 19.9-22.95L19.9-22.95Q23.44-12.06 24.15-10.03L24.15-10.03ZM32.67-4.13L32.62-4.27 32.67-4.13ZM56.1 8.11L56.1-1.93Q53.85 0.61 50.79 0.61 47.73 0.61 45.76-0.24 43.8-1.1 42.45-2.64L42.45-2.64Q39.87-5.64 39.55-11.13L39.55-11.13Q39.5-12.23 39.06-12.79L39.06-12.79Q38.33-13.72 36.57-14.58L36.57-14.58Q39.45-15.89 39.57-18.62 39.69-21.34 40.54-23.28 41.38-25.22 42.8-26.46L42.8-26.46Q45.51-28.81 50.36-28.81L50.36-28.81Q53.32-28.81 55.32-27.17L55.32-27.17Q55.98-26.64 56.39-25.9L56.39-25.9Q57.66-27.34 59.04-28.08 60.42-28.81 61.79-28.81L61.79-28.81Q64.13-28.81 65.5-28.13L65.5-28.13Q64.35-26.71 64.35-24.27L64.35-24.27 64.35-18.8Q64.35-15.97 67.33-14.6L67.33-14.6Q65.57-13.75 65.09-13.16L65.09-13.16Q64.35-12.26 64.35-11.13L64.35-11.13 64.35 8.06Q64.96 9.74 66.38 9.74L66.38 9.74Q67.21 9.74 67.75 9.33L67.75 9.33Q68.09 9.79 68.09 10.49 68.09 11.18 67.39 11.82 66.7 12.45 65.28 12.45 63.86 12.45 62.72 11.65L62.72 11.65Q61.74 12.45 60.29 12.45 58.84 12.45 57.74 11.65L57.74 11.65Q56.64 12.45 55.2 12.45 53.76 12.45 53.06 11.82 52.37 11.18 52.37 10.6L52.37 10.6Q52.37 9.79 52.71 9.33L52.71 9.33Q53.24 9.74 54.07 9.74L54.07 9.74Q55.49 9.74 56.1 8.11L56.1 8.11ZM51.71-25.24L51.71-25.24Q47.8-25.24 47.8-19.51L47.8-19.51 47.8-8.81Q47.8-4.35 50.75-3.27L50.75-3.27Q51.58-2.95 52.4-2.95 53.22-2.95 53.89-3.28 54.56-3.61 55.05-4.15L55.05-4.15Q56.1-5.35 56.1-7.01L56.1-7.01 56.1-19.51Q56.1-24 53.37-24.95L53.37-24.95Q52.56-25.24 51.71-25.24ZM58.58-17.09Q58.57-15.99 58.55-15.43 58.54-14.87 58.54-12.72L58.54-12.72 58.54-6.25Q58.54-2.61 58.74-1.66L58.74-1.66Q59.06 0.02 59.91 0.59L59.91 0.59 59.91-1.34Q59.91-12.18 60.2-13.35L60.2-13.35Q60.4-14.06 61.86-14.58L61.86-14.58Q60.42-15.06 60.2-15.84L60.2-15.84Q59.91-17.02 59.91-21.26L59.91-21.26 59.91-22.73Q58.91-22.07 58.71-19.63L58.71-19.63Q58.59-18.19 58.58-17.09ZM43.82-6.47L43.82-6.47Q44.16-6.74 44.16-7.08L44.16-7.08Q44.16-7.62 43.94-8.45L43.94-8.45Q42.94-12.28 42.94-13.78 42.94-15.28 43.04-16.13 43.14-16.97 43.31-17.82L43.31-17.82Q43.6-19.48 43.94-20.75L43.94-20.75Q44.16-21.58 44.16-21.88L44.16-21.88Q44.16-22.46 43.82-22.73L43.82-22.73Q42.8-21.51 42.26-19.46 41.72-17.41 41.38-15.84L41.38-15.84Q41.26-15.19 39.94-14.58L39.94-14.58Q41.26-13.96 41.38-13.35L41.38-13.35Q42.28-9.23 42.87-8.11 43.45-6.98 43.82-6.47ZM93.33 0.49L93.33 0.49Q89.89 0.49 89.62-4.27L89.62-4.27Q88.37-2.03 86.26-0.71 84.15 0.61 81.72 0.61 79.29 0.61 77.78-0.05 76.26-0.71 75.26-1.95L75.26-1.95Q73.31-4.39 73.31-8.89L73.31-8.89 73.31-10.4Q73.31-13.23 70.33-14.6L70.33-14.6Q72.09-15.45 72.58-16.04L72.58-16.04Q73.31-16.94 73.31-18.07L73.31-18.07 73.31-21.36Q73.31-23.44 71.89-23.61L71.89-23.61Q71.48-23.66 70.84-23.66 70.21-23.66 69.67-23.24L69.67-23.24Q69.33-23.71 69.33-24.21 69.33-24.71 69.59-25.33 69.84-25.95 70.38-26.51L70.38-26.51Q71.65-27.83 73.33-27.83 75.02-27.83 76.51-27.27L76.51-27.27Q77.58-28.81 79.05-28.81L79.05-28.81Q81.56-28.81 81.56-26.17L81.56-26.17 81.56-10.28Q81.56-5.64 83.71-4.71L83.71-4.71Q84.39-4.42 85.24-4.42 86.08-4.42 86.76-4.77 87.45-5.13 87.96-5.74L87.96-5.74Q88.91-6.93 89.18-9.01L89.18-9.01 89.18-21.36Q89.18-24.15 86.91-24.15L86.91-24.15Q86.08-24.15 85.54-23.73L85.54-23.73Q85.2-24.19 85.2-24.69 85.2-25.2 85.46-25.74 85.71-26.29 86.25-26.76L86.25-26.76Q87.45-27.83 89.17-27.83 90.89-27.83 92.38-27.27L92.38-27.27Q93.45-28.81 94.92-28.81L94.92-28.81Q97.43-28.81 97.43-26.17L97.43-26.17 97.43-18.07Q97.43-16.94 97.87-16.41L97.87-16.41Q98.65-15.45 100.41-14.6L100.41-14.6Q97.43-13.23 97.43-10.4L97.43-10.4 97.43-4.1Q97.9-2.22 99.46-2.22L99.46-2.22Q100.29-2.22 100.83-2.64L100.83-2.64Q101.17-2.17 101.17-1.48 101.17-0.78 100.47-0.15 99.78 0.49 98.3 0.49 96.82 0.49 95.5-0.29L95.5-0.29Q94.53 0.49 93.33 0.49ZM91.5-22.73L91.5-6.47Q92.91-7.03 92.99-11.87L92.99-11.87Q92.99-12.89 92.99-14.21 92.99-15.53 92.98-16.47 92.96-17.41 92.94-18.26L92.94-18.26Q92.84-21.34 92.38-21.94 91.91-22.53 91.5-22.73L91.5-22.73ZM76.97-11.38L76.9-14.6 76.97-17.82Q76.97-20 76.83-20.7L76.83-20.7Q76.41-22.56 75.65-22.73L75.65-22.73 75.65-21.14Q75.65-17.02 75.47-16.3 75.29-15.58 74.89-15.22 74.48-14.87 73.7-14.6L73.7-14.6Q75.17-14.09 75.36-13.35L75.36-13.35Q75.65-12.18 75.65-8.06L75.65-8.06 75.65-6.47Q76.39-6.64 76.85-8.64L76.85-8.64Q76.97-9.2 76.97-11.38L76.97-11.38ZM121.38-2.32L121.38-2.32Q119.16 0.61 114.71 0.61L114.71 0.61Q109.29 0.61 106.58-2.64L106.58-2.64Q105.41-4.03 104.97-5.74L104.97-5.74Q104.73-6.76 104.12-7.31 103.51-7.86 102.6-8.3L102.6-8.3Q104.36-9.11 105.12-11.33L105.12-11.33Q105.93-13.67 107.81-14.72L107.81-14.72Q109.83-15.82 112.27-15.88 114.71-15.94 115.89-16.04 117.06-16.14 117.96-16.36L117.96-16.36Q119.65-16.75 120.6-17.8L120.6-17.8 120.6-21.46Q120.6-23.88 119.61-25 118.62-26.12 116.61-26.12 114.59-26.12 113.63-25.38 112.66-24.63 112.66-23.39L112.66-23.39Q112.66-21.48 114.62-21.53L114.62-21.53Q114.23-19.63 112.57-19.63L112.57-19.63Q112.08-19.63 111.61-19.8L111.61-19.8 111.61-19.73Q111.61-19.09 112.2-18.92L112.2-18.92Q111.59-17.99 110.15-18.02 108.71-18.04 107.9-19.56L107.9-19.56Q107.54-19.46 107.06-19.46 106.58-19.46 106.01-19.78 105.44-20.09 105.1-20.65L105.1-20.65Q106.32-21.39 106.58-22.92L106.58-22.92Q106.88-24.8 109.59-26.73L109.59-26.73Q112.86-29.05 117.94-29.05L117.94-29.05Q126.36-29.05 128.22-23.88L128.22-23.88Q128.83-22.14 128.83-19.78L128.83-19.78 128.83-17.8Q128.83-16.6 129.42-15.84 130.02-15.09 131.46-14.6L131.46-14.6Q129.92-13.89 129.48-13.33L129.48-13.33Q128.83-12.48 128.83-11.38L128.83-11.38 128.83-4.05Q129.53-2.22 130.85-2.22L130.85-2.22Q131.68-2.22 132.22-2.64L132.22-2.64Q132.56-2.17 132.56-1.48 132.56-0.78 131.87-0.15 131.17 0.49 129.78 0.49 128.39 0.49 127.19-0.29L127.19-0.29Q126.14 0.49 125.32 0.49 124.5 0.49 123.91 0.33 123.31 0.17 122.8-0.17L122.8-0.17Q121.65-0.93 121.38-2.32ZM122.92-22.73L122.92-6.47Q124.33-7.03 124.41-11.87L124.41-11.87Q124.41-12.89 124.41-14.21 124.41-15.53 124.39-16.47 124.38-17.41 124.36-18.26L124.36-18.26Q124.26-21.34 123.8-21.94 123.33-22.53 122.92-22.73L122.92-22.73ZM113.91-8.2L113.91-8.2Q113.91-7.18 114.13-6.2 114.35-5.22 114.79-4.49L114.79-4.49Q115.76-2.95 117.55-2.95L117.55-2.95Q118.89-2.95 119.77-4.05L119.77-4.05Q120.6-5.13 120.6-6.81L120.6-6.81 120.6-14.77Q119.04-13.87 116.59-13.53L116.59-13.53Q113.91-13.11 113.91-8.2ZM110.25-2.71L110.25-2.71Q110.49-2.88 110.49-3.15L110.49-3.15Q110.49-3.52 110.15-4.17L110.15-4.17Q108.93-6.42 108.93-7.86 108.93-9.3 109.04-9.94 109.15-10.57 109.33-11.02 109.51-11.47 109.75-11.82 109.98-12.16 110.15-12.43L110.15-12.43Q110.47-12.99 110.47-13.2 110.47-13.4 110.25-13.55L110.25-13.55Q109.25-13.09 108.78-12.45L108.78-12.45Q107.95-11.33 107.56-9.55L107.56-9.55Q107.46-9.03 105.85-8.3L105.85-8.3Q107.41-7.59 107.56-7.06L107.56-7.06Q108.39-4.15 110.25-2.71ZM140.27-0.29L140.27-0.29Q139.15 0.49 137.72 0.49 136.29 0.49 135.6-0.15 134.9-0.78 134.9-1.37L134.9-1.37Q134.9-2.17 135.24-2.64L135.24-2.64Q135.78-2.22 136.61-2.22L136.61-2.22Q138.03-2.22 138.64-3.86L138.64-3.86 138.64-11.38Q138.64-12.45 138.2-12.94L138.2-12.94Q137.49-13.67 135.66-14.58L135.66-14.58Q137.37-15.36 137.86-15.84L137.86-15.84Q138.64-16.65 138.64-17.82L138.64-17.82 138.64-31.62Q138.64-34.4 136.37-34.4L136.37-34.4Q135.54-34.4 135-33.98L135-33.98Q134.66-34.45 134.66-34.95 134.66-35.45 134.91-35.91 135.17-36.38 135.71-36.77L135.71-36.77Q136.86-37.6 138.61-37.6 140.37-37.6 141.35-37.38L141.35-37.38Q142.69-39.06 144.37-39.06L144.37-39.06Q146.82-39.06 146.82-36.43L146.82-36.43 146.82-17.82Q146.82-16.65 147.33-16.14L147.33-16.14Q148.09-15.36 149.79-14.58L149.79-14.58Q147.96-13.67 147.5-13.21L147.5-13.21Q146.82-12.45 146.82-11.38L146.82-11.38 146.82-3.86Q147.4-2.22 148.84-2.22L148.84-2.22Q149.67-2.22 150.21-2.64L150.21-2.64Q150.55-2.17 150.55-1.48 150.55-0.78 149.86-0.15 149.16 0.49 147.77 0.49 146.38 0.49 145.18-0.29L145.18-0.29Q144.18 0.49 142.8 0.49 141.42 0.49 140.27-0.29ZM140.98-8.08L140.98-6.49Q142.08-7.2 142.28-9.59L142.28-9.59Q142.35-10.64 142.37-11.94 142.4-13.23 142.41-13.78 142.42-14.33 142.42-14.6L142.42-14.6 142.42-16.8Q142.42-17.7 142.4-18.85L142.4-18.85 142.4-21.24Q142.32-27.71 142.15-28.44L142.15-28.44Q141.81-29.98 140.98-30.52L140.98-30.52 140.98-22.29Q140.98-17.24 140.87-16.66 140.76-16.09 140.69-15.82L140.69-15.82Q140.47-15.06 139.03-14.58L139.03-14.58Q140.49-14.06 140.69-13.35L140.69-13.35Q140.98-12.18 140.98-8.08L140.98-8.08ZM182.17-25.17L182.17-25.17Q181.63-25.51 180.46-25.51L180.46-25.51Q178.11-25.51 176.92-22.34L176.92-22.34 176.16-20.21Q175.33-17.9 175.32-17.04 175.3-16.19 175.61-15.66 175.92-15.14 176.99-14.58L176.99-14.58Q174.35-13.84 173.4-12.11L173.4-12.11Q173.11-11.57 172.89-10.99L172.89-10.99 168.84 0.02Q166.47 6.84 164.44 9.25L164.44 9.25Q162.59 11.47 159.8 11.47L159.8 11.47Q157.68 11.47 155.8 10.11L155.8 10.11Q153.65 8.57 153.65 6.49L153.65 6.49Q153.65 5.2 154.33 4.53 155.02 3.86 155.59 3.86 156.16 3.86 156.38 3.87 156.6 3.88 156.82 3.96L156.82 3.96Q157.26 4.15 157.65 4.83L157.65 4.83Q157.14 5.81 158.31 6.98L158.31 6.98Q159.41 8.13 160.38 8.13 161.34 8.13 161.99 7.76 162.63 7.4 163.15 6.64L163.15 6.64Q164.27 4.98 164.27 1.88L164.27 1.88Q164.27 0.2 163.37-1.83L163.37-1.83Q163.12-2.51 162.78-3.27L162.78-3.27 159.31-11.08Q158.75-12.33 157.62-13.29 156.48-14.26 155.07-14.58L155.07-14.58Q156.75-15.43 156.75-16.82L156.75-16.82Q156.75-17.82 155.94-19.78L155.94-19.78 154.5-23.24Q153.87-24.66 153.45-25.02L153.45-25.02Q152.72-25.61 151.76-25.61 150.79-25.61 150.26-25.2L150.26-25.2Q149.96-25.49 149.95-26.05 149.94-26.61 150.09-26.99 150.23-27.37 150.57-27.66L150.57-27.66Q151.31-28.32 152.69-28.32 154.06-28.32 155.29-27.44L155.29-27.44Q156.29-28.32 157.73-28.32 159.17-28.32 160.27-27.51L160.27-27.51Q161.36-28.32 162.73-28.32 164.1-28.32 164.89-27.67 165.69-27.03 165.71-26.39L165.71-26.39Q165.73-25.44 165.39-25.1L165.39-25.1Q164.81-25.54 164.17-25.54 163.54-25.54 163.13-25.17 162.73-24.8 162.78-23.97L162.78-23.97 168.42-8.74 173.77-24.39Q173.5-25.63 171.98-25.63L171.98-25.63Q171.03-25.63 170.18-25.17L170.18-25.17Q169.93-25.63 169.95-26.37 169.96-27.1 170.63-27.71 171.3-28.32 172.46-28.32 173.62-28.32 174.45-27.54L174.45-27.54Q175.33-28.32 176.43-28.32 177.53-28.32 178.43-27.64L178.43-27.64Q179.26-28.32 180.27-28.32 181.29-28.32 181.88-27.73 182.48-27.15 182.46-26.51L182.46-26.51Q182.41-25.54 182.17-25.17ZM163.15-12.08L158.65-22.73Q158.09-22.36 158.11-21.8 158.12-21.24 158.15-20.94 158.19-20.63 158.29-20.21L158.29-20.21Q158.51-19.43 159.18-17.91 159.85-16.38 159.89-16 159.92-15.63 159.63-15.17 159.34-14.72 158.92-14.58L158.92-14.58Q160.49-14.28 160.85-13.48L160.85-13.48Q161.02-13.13 161.34-12.4L161.34-12.4 163-8.69Q163.49-7.57 164.03-6.47L164.03-6.47Q165.03-7.69 163.15-12.08L163.15-12.08ZM184.73 0.49L184.73 0.49Q182.09 0.49 182.24-1.81L182.24-1.81Q182.24-2.22 182.53-2.64L182.53-2.64Q182.9-2.39 183.53-2.39L183.53-2.39Q184.26-2.39 184.73-2.86L184.73-2.86Q185.65-3.74 186.61-5.4L186.61-5.4Q190.32-11.74 190.32-12.55L190.32-12.55Q190.39-13.09 189.68-13.73 188.97-14.38 188.63-14.6L188.63-14.6Q191.03-15.43 192.83-17.09L192.83-17.09Q193.44-17.65 193.76-18.19L193.76-18.19 197.52-24.56Q196.32-24.98 194.69-24.98 193.05-24.98 191.83-24.55 190.61-24.12 189.66-23.34L189.66-23.34Q187.56-21.61 187.56-18.97L187.56-18.97Q187.56-17.7 187.95-17.19L187.95-17.19Q187.66-16.6 187.02-16.6 186.39-16.6 185.95-16.82 185.51-17.04 185.17-17.43L185.17-17.43Q184.38-18.36 184.38-19.53 184.38-20.7 184.7-21.36L184.7-21.36Q183.7-22.02 183.7-23.06 183.7-24.1 184.41-24.8L184.41-24.8Q183.82-25.56 183.82-26.21 183.82-26.86 184.04-27.29 184.26-27.73 184.63-28.08L184.63-28.08Q185.41-28.81 186.41-28.81L186.41-28.81Q187.02-28.81 187.53-28.61L187.53-28.61Q187.46-28.32 187.46-27.78L187.46-27.78Q187.46-26.95 188.24-26.95L188.24-26.95Q189.46-26.95 190.51-27.42L190.51-27.42Q192.51-28.32 195.08-28.32 197.64-28.32 199.96-27.49L199.96-27.49Q201.06-28.32 202.3-28.32L202.3-28.32Q203.89-28.32 204.84-27.49L204.84-27.49Q205.84-28.32 207.02-28.32 208.19-28.32 208.85-27.69 209.51-27.05 209.46-26L209.46-26Q209.46-25.46 209.16-25.17L209.16-25.17Q208.75-25.44 208.07-25.44L208.07-25.44Q206.67-25.44 205.7-23.54L205.7-23.54 202.99-18.43Q202.35-17.16 202.33-16.82 202.3-16.48 202.39-16.24 202.48-15.99 202.65-15.72L202.65-15.72Q203.06-15.04 203.67-14.6L203.67-14.6Q200.5-13.89 198.79-10.82L198.79-10.82 194.37-3.39Q195.37-2.73 197.41-2.73 199.45-2.73 200.55-3.23 201.65-3.74 202.43-4.59L202.43-4.59Q204.06-6.42 204.06-9.11L204.06-9.11Q204.06-10.25 203.67-10.89L203.67-10.89Q204.45-11.47 204.97-11.47 205.48-11.47 205.91-11.25 206.33-11.04 206.67-10.64L206.67-10.64Q207.46-9.72 207.46-8.58 207.46-7.45 206.97-6.69L206.97-6.69Q208.14-5.96 208.14-5 208.14-4.05 207.26-3.3L207.26-3.3Q208.04-2.47 208.04-1.84 208.04-1.22 207.82-0.74 207.6-0.27 207.24 0.12L207.24 0.12Q206.43 0.98 205.45 0.98L205.45 0.98Q205.06 0.98 204.55 0.78L204.55 0.78Q204.62 0.49 204.62-0.05L204.62-0.05Q204.62-0.88 203.87-0.88L203.87-0.88Q203.26-0.88 202.52-0.54 201.79-0.2 201.13 0 200.47 0.2 199.77 0.34L199.77 0.34Q198.28 0.61 196.96 0.61L196.96 0.61Q193.88 0.61 191.73-0.34L191.73-0.34Q190.56 0.49 189.21 0.49 187.85 0.49 186.87-0.34L186.87-0.34Q185.78 0.49 184.73 0.49ZM191.39-6.47L200.3-22.73Q198.74-22.63 197.59-20.63L197.59-20.63 195.69-17.33Q194.93-16.04 194.59-15.58L194.59-15.58Q194.05-14.89 192.59-14.6L192.59-14.6Q193.42-14.21 193.38-13.73 193.34-13.26 193.23-12.92 193.12-12.57 192.98-12.26L192.98-12.26Q192.76-11.72 192.29-10.86L192.29-10.86 191.37-9.23Q190.56-7.74 191.17-6.64L191.17-6.64Q191.24-6.49 191.39-6.47L191.39-6.47ZM233.89-7.37L233.89-7.37Q234.43-8.4 235.87-8.4L235.87-8.4Q236.85-8.4 237.38-7.59L237.38-7.59Q237.82-6.96 237.82-6.04 237.82-5.13 237.36-4.2 236.9-3.27 236.09-2.51 235.29-1.76 234.25-1.17 233.21-0.59 232.04-0.2L232.04-0.2Q229.62 0.61 227.01 0.61 224.4 0.61 222.11-0.26 219.83-1.12 218.2-2.69L218.2-2.69Q215-5.76 214.29-11.13L214.29-11.13Q214.12-12.33 213.73-12.84L213.73-12.84Q213-13.75 211.31-14.58L211.31-14.58Q213.43-15.53 214.02-17.63L214.02-17.63Q214.19-18.21 214.29-18.8L214.29-18.8Q214.9-23.1 218.63-26.12L218.63-26.12Q222.25-29.05 226.72-29.05L226.72-29.05Q231.35-29.05 234.75-25.78L234.75-25.78Q238.26-22.41 238.26-17.5L238.26-17.5Q238.26-17.33 238.25-17.16 238.24-16.99 238.26-16.85L238.26-16.85Q238.31-16.53 238.65-16.48L238.65-16.48Q239.09-15.92 239.09-15.28L239.09-15.28Q239.09-13.82 237.53-13.55L237.53-13.55Q237.14-13.48 236.31-13.35L236.31-13.35 222.54-11.16 222.54-8.81Q222.54-5.98 224.25-4.32L224.25-4.32Q225.86-2.73 228.33-2.73L228.33-2.73Q230.94-2.73 232.53-3.81L232.53-3.81Q234.02-4.83 234.02-6.49L234.02-6.49Q234.02-6.88 233.89-7.37ZM222.54-14.11L229.62-15.26 229.62-22.09Q229.62-23.71 228.99-24.46L228.99-24.46Q227.86-25.76 226.76-25.76 225.67-25.76 224.93-25.43 224.2-25.1 223.66-24.39L223.66-24.39Q222.54-22.9 222.54-19.75L222.54-19.75 222.54-14.11ZM231.72-15.63L233.23-15.87 233.23-16.63Q233.23-21.17 232.48-22.12L232.48-22.12Q232.14-22.53 231.72-22.73L231.72-22.73 231.72-15.63ZM218.56-6.47L218.56-6.47Q218.9-6.74 218.9-7.08L218.9-7.08Q218.9-7.62 218.68-8.45L218.68-8.45Q217.68-12.28 217.68-13.78 217.68-15.28 217.78-16.13 217.88-16.97 218.05-17.82L218.05-17.82Q218.34-19.48 218.68-20.75L218.68-20.75Q218.9-21.58 218.9-21.88L218.9-21.88Q218.9-22.46 218.56-22.73L218.56-22.73Q217.54-21.51 217-19.46 216.46-17.41 216.12-15.84L216.12-15.84Q216-15.19 214.68-14.58L214.68-14.58Q216-13.96 216.12-13.35L216.12-13.35Q217.02-9.23 217.61-8.11 218.2-6.98 218.56-6.47Z" fill="#ffffff" data-fill-palette-color="primary"></path></g></svg></g></svg></g></svg></g></svg></g><g transform="matrix(1,0,0,1,256.7748552391007,0)"><svg viewBox="0 0 54.183712062068324 72.25940129635038" height="72.25940129635038" width="54.183712062068324"><g><svg xmlns="http://www.w3.org/2000/svg" xmlns:xlink="http://www.w3.org/1999/xlink" version="1.1" x="0" y="0" viewBox="12.508000000000001 0 74.985 100.00000000000001" enable-background="new 0 0 100 100" xml:space="preserve" width="54.183712062068324" height="72.25940129635038" class="icon-icon-0" data-fill-palette-color="accent" id="icon-0"><g fill="#ff9966" data-fill-palette-color="accent"><path d="M78.416 95.454H17.053V34.091c0-1.255-1.018-2.272-2.273-2.272-1.255 0-2.272 1.018-2.272 2.272v63.637c0 1.255 1.018 2.272 2.272 2.272h63.637c1.255 0 2.272-1.018 2.272-2.272C80.688 96.472 79.671 95.454 78.416 95.454z" fill="#ffffff" data-fill-palette-color="accent"></path><path d="M22.481 93.182h7.514c1.743 0 3.156-1.413 3.156-3.156V50.884c0-1.743-1.413-3.156-3.156-3.156h-7.514c-1.743 0-3.156 1.413-3.156 3.156v39.142C19.325 91.769 20.738 93.182 22.481 93.182z" fill="#ffffff" data-fill-palette-color="accent"></path><path d="M38.391 93.182h7.323c1.743 0 3.157-1.413 3.157-3.156v-45.96c0-1.743-1.414-3.156-3.157-3.156h-7.323c-1.743 0-3.156 1.413-3.156 3.156v45.96C35.234 91.769 36.647 93.182 38.391 93.182z" fill="#ffffff" data-fill-palette-color="accent"></path><path d="M54.3 93.182h7.323c1.743 0 3.156-1.413 3.156-3.156V34.975c0-1.743-1.413-3.156-3.156-3.156H54.3c-1.743 0-3.156 1.413-3.156 3.156v55.051C51.144 91.769 52.557 93.182 54.3 93.182z" fill="#ffffff" data-fill-palette-color="accent"></path><path d="M87.493 11.364L73.87 0 60.248 11.364h6.805v78.661c0 1.743 1.413 3.156 3.156 3.156h7.323c1.743 0 3.156-1.413 3.156-3.156V11.364H87.493z" fill="#ffffff" data-fill-palette-color="accent"></path></g></svg></g></svg></g></svg></g></svg></g><g><path d="M245.816 0c68.262 0 123.6 55.338 123.6 123.6 0 68.262-55.338 123.6-123.6 123.6-56.743 0-104.555-38.236-119.076-90.349l1.925 0c14.469 51.076 61.44 88.495 117.151 88.496 67.239 0 121.747-54.508 121.746-121.747 0-67.239-54.508-121.747-121.746-121.747-55.711 0-102.682 37.419-117.151 88.496l-1.925 0c14.521-52.112 62.333-90.349 119.076-90.349z" fill="#ffffff" stroke="transparent" data-fill-palette-color="tertiary"></path></g></svg></g><defs></defs></svg><rect width="395.52" height="247.2" fill="none" stroke="none" visibility="hidden"></rect></g></svg></g></svg>